<svg xmlns="http://www.w3.org/2000/svg" viewBox="0 0 64 64" width="64" height="64">
  <!-- Dendrite branches (curved for organic look) -->
  <g stroke="#38BDF8" fill="none" stroke-linecap="round" opacity="0.7">
    <!-- Upper-left dendrite -->
    <path d="M32,32 Q26,26 24,22 Q20,16 18,14" stroke-width="1.5"/>
    <path d="M24,22 Q19,19 14,20" stroke-width="1"/>
    <path d="M18,14 Q14,11 12,10" stroke-width="0.8"/>
    <path d="M18,14 Q16,10 16,8" stroke-width="0.8"/>
    <!-- Upper-right dendrite -->
    <path d="M32,32 Q38,24 42,20 Q46,14 48,12" stroke-width="1.5"/>
    <path d="M42,20 Q47,17 52,18" stroke-width="1"/>
    <path d="M48,12 Q52,9 54,8" stroke-width="0.8"/>
    <path d="M48,12 Q50,8 50,6" stroke-width="0.8"/>
    <!-- Right dendrite -->
    <path d="M32,32 Q40,32 44,34 Q50,33 54,30" stroke-width="1.5"/>
    <path d="M44,34 Q48,38 56,36" stroke-width="1"/>
    <path d="M54,30 Q58,28 60,28" stroke-width="0.8"/>
    <!-- Lower-right dendrite -->
    <path d="M32,32 Q38,40 40,44 Q44,50 46,52" stroke-width="1.5"/>
    <path d="M40,44 Q45,47 50,46" stroke-width="1"/>
    <path d="M46,52 Q48,56 50,58" stroke-width="0.8"/>
    <path d="M46,52 Q50,52 52,54" stroke-width="0.8"/>
    <!-- Lower-left dendrite -->
    <path d="M32,32 Q26,38 22,42 Q18,48 16,50" stroke-width="1.5"/>
    <path d="M22,42 Q17,45 12,44" stroke-width="1"/>
    <path d="M16,50 Q12,52 10,54" stroke-width="0.8"/>
    <path d="M16,50 Q14,54 14,56" stroke-width="0.8"/>
    <!-- Left dendrite -->
    <path d="M32,32 Q24,30 20,30 Q14,32 10,34" stroke-width="1.5"/>
    <path d="M20,30 Q16,26 8,28" stroke-width="1"/>
    <path d="M10,34 Q6,36 4,36" stroke-width="0.8"/>
    <!-- Axon (downward, slight curve) -->
    <path d="M32,32 Q33,40 32,46 Q31,52 30,56" stroke-width="2"/>
    <path d="M30,56 Q28,60 28,62" stroke-width="1"/>
    <path d="M30,56 Q33,58 34,60" stroke-width="1"/>
  </g>
  <!-- Synaptic terminals (small dots at branch ends) -->
  <g fill="#38BDF8" opacity="0.5">
    <circle cx="12" cy="10" r="1.2"/>
    <circle cx="16" cy="8" r="1"/>
    <circle cx="14" cy="20" r="1"/>
    <circle cx="54" cy="8" r="1.2"/>
    <circle cx="50" cy="6" r="1"/>
    <circle cx="52" cy="18" r="1"/>
    <circle cx="60" cy="28" r="1.2"/>
    <circle cx="56" cy="36" r="1"/>
    <circle cx="50" cy="58" r="1.2"/>
    <circle cx="52" cy="54" r="1"/>
    <circle cx="10" cy="54" r="1.2"/>
    <circle cx="14" cy="56" r="1"/>
    <circle cx="12" cy="44" r="1"/>
    <circle cx="4" cy="36" r="1.2"/>
    <circle cx="8" cy="28" r="1"/>
    <circle cx="28" cy="62" r="1"/>
    <circle cx="34" cy="60" r="1"/>
  </g>
  <!-- Soma (cell body) with glow -->
  <circle cx="32" cy="32" r="6" fill="#0EA5E9" opacity="0.3"/>
  <circle cx="32" cy="32" r="4" fill="#38BDF8"/>
  <circle cx="32" cy="32" r="2" fill="#FFFFFF" opacity="0.8"/>
</svg>
